<?xml version="1.0" encoding="utf-8"?>
<!-- Generator: Adobe Illustrator 16.0.0, SVG Export Plug-In . SVG Version: 6.00 Build 0)  -->
<!DOCTYPE svg PUBLIC "-//W3C//DTD SVG 1.1//EN" "http://www.w3.org/Graphics/SVG/1.1/DTD/svg11.dtd">
<svg version="1.1" xmlns="http://www.w3.org/2000/svg" xmlns:xlink="http://www.w3.org/1999/xlink" x="0px" y="0px" width="1000px"
	 height="1000px" viewBox="0 0 1000 1000" enable-background="new 0 0 1000 1000" xml:space="preserve">
<g id="Layer_1">
</g>
<g id="Design">
</g>
<g id="module">
</g>
<g id="elemants">
	<g>
		<path fill="#0BAFE8" d="M915.463,371.835c-3.825-9.185-14.363-13.506-23.542-9.683c-9.165,3.824-13.506,14.362-9.684,23.546
			c21.076,50.492,31.75,104.071,31.75,159.3c0,228.275-185.712,413.992-414.007,413.992c-228.256,0-413.992-185.717-413.992-413.992
			c0-228.276,185.736-414.007,413.992-414.007c41.606,0,82.599,6.192,121.957,18.326l-94.949,54.813
			c-8.605,4.959-11.554,15.952-6.574,24.576c3.326,5.776,9.363,9,15.575,9c3.069,0,6.159-0.773,9.006-2.407l124.721-72.021
			c8.604-4.959,11.554-15.977,6.574-24.581L604.288,13.995c-4.96-8.604-15.952-11.553-24.575-6.574
			c-8.629,4.959-11.572,15.976-6.594,24.581l45.531,78.833c-38.521-10.5-78.34-15.836-118.67-15.836
			c-248.124,0-449.981,201.868-449.981,450.001C49.999,793.113,251.856,995,499.98,995c248.152,0,450.021-201.887,450.021-450.001
			C950.001,485.009,938.39,426.75,915.463,371.835z"/>
		<path fill="#0BAFE8" d="M394.754,561.091c6.395-4.418,12.916-8.483,19.578-12.205c6.676-3.747,12.926-7.053,18.794-9.982
			c6.651-3.485,14.188-7.526,22.575-12.187c8.387-4.66,16.252-10.32,23.575-16.991c7.338-6.671,13.453-14.343,18.394-23.005
			c4.94-8.643,7.387-18.563,7.387-29.758c0-16.508-5.714-29.894-17.176-40.152c-11.466-10.257-27.974-15.396-49.567-15.396
			c-11.732,0-22.773,1.412-33.171,4.201c-10.388,2.789-19.921,6.192-28.583,10.18c-8.653,4.003-16.252,8.204-22.778,12.588
			c-6.531,4.379-11.52,8.063-14.985,10.993l21.192,32.368c3.456-3.447,7.788-7.053,12.984-10.799
			c5.202-3.703,10.848-7.11,16.982-10.175c6.134-3.07,12.52-5.598,19.181-7.589c6.671-2.011,13.323-3.007,19.989-3.007
			c10.127,0,16.986,2.267,20.593,6.792c3.596,4.539,5.39,10.277,5.39,17.189c0,6.134-1.267,11.471-3.804,15.991
			c-2.533,4.525-6.792,9.146-12.791,13.787c-5.994,4.66-13.922,9.799-23.769,15.396c-9.871,5.593-22.26,12.39-37.178,20.375
			c-13.593,7.449-25.117,14.859-34.578,22.169c-9.46,7.348-17.325,15.135-23.57,23.382c-6.265,8.285-11.336,20.36-15.198,29.999
			c-3.853,9.563-6.98,34.746-9.383,34.746h177.456l8.387-40H363.971c3.195-20,6.243-19.204,11.695-24.667
			C381.125,569.88,388.359,565.495,394.754,561.091z"/>
		<path fill="#0BAFE8" d="M675.174,412L503.9,602.006L495.519,640h115.103l-13.604,59h43.979l13.584-59h33.582l8.382-40h-33.558
			l42.162-188H675.174z M623.808,600h-75.148l106.202-115.146L623.808,600z"/>
	</g>
</g>
</svg>
