<?xml version="1.0" encoding="utf-8"?>
<!-- Generator: Adobe Illustrator 16.0.0, SVG Export Plug-In . SVG Version: 6.00 Build 0)  -->
<!DOCTYPE svg PUBLIC "-//W3C//DTD SVG 1.1//EN" "http://www.w3.org/Graphics/SVG/1.1/DTD/svg11.dtd">
<svg version="1.1" xmlns="http://www.w3.org/2000/svg" xmlns:xlink="http://www.w3.org/1999/xlink" x="0px" y="0px" width="400px"
	 height="220px" viewBox="0 0 400 220" enable-background="new 0 0 400 220" xml:space="preserve">
<g id="svg2" xmlns:cc="http://creativecommons.org/ns#" xmlns:svg="http://www.w3.org/2000/svg" xmlns:rdf="http://www.w3.org/1999/02/22-rdf-syntax-ns#" xmlns:dc="http://purl.org/dc/elements/1.1/">
	<g id="g10" transform="matrix(1.3333333,0,0,-1.3333333,0,173.37333)">
		<g id="g12" transform="scale(0.1)">
			<path id="path14" fill="#ECECEC" d="M26.166,634.089l128.097-244.014c8.719-16.641,30.293-30.088,48.135-30.088l0,0
				l261.317,0.527c17.842,0.073,25.166,13.586,16.447,30.234l0,0L351.998,634.756c-8.723,16.644-30.293,30.092-48.138,30.092l0,0
				l-261.251-0.601c-0.399,0-0.798,0-1.198,0l0,0C24.434,663.65,17.644,650.334,26.166,634.089"/>
			<path id="path16" fill="#ECECEC" d="M522.503,349.799l77.563-144.734c5.259-9.858,18.175-17.783,28.828-17.71l0,0l155.662,1.655
				c10.649,0.139,14.912,8.188,9.653,18.113l0,0l-77.564,144.741c-5.262,9.851-18.175,17.776-28.828,17.644l0,0l-155.662-1.67
				c-0.198,0-0.333,0-0.531,0l0,0C521.371,367.444,517.31,359.519,522.503,349.799"/>
			<path id="path18" fill="#ECECEC" d="M523.436,899.336L367.709,699.535c-10.653-13.649-12.048-38.082-3.193-54.727l0,0
				l130.159-242.882c8.855-16.567,24.701-18.97,35.284-5.317l0,0l155.793,199.863c10.587,13.649,12.052,38.082,3.131,54.727l0,0
				L558.787,894.077c-5.193,9.584-12.649,14.447-20.039,14.18l0,0C533.287,907.989,527.897,905.06,523.436,899.336"/>
			<path id="path20" fill="#ECECEC" d="M486.951,347.339l-92.809-119.041c-6.324-8.13-7.192-22.705-1.864-32.563l0,0l77.563-144.734
				c5.325-9.851,14.714-11.316,21.039-3.201l0,0l92.743,119.048c6.324,8.115,7.189,22.764,1.864,32.622l0,0L507.99,344.211
				c-3.062,5.728-7.522,8.584-11.982,8.452l0,0C492.81,352.531,489.613,350.803,486.951,347.339"/>
			<path id="path22" fill="#ECECEC" d="M2188.946,304.997h52.002v391.274h-52.002V304.997z"/>
			<path id="path24" fill="#ECECEC" d="M1257.722,572.639c-74.498,0-134.952-60.454-134.952-135.022h-0.066V188.418h51.998v249.199
				h0.264c0,46.139,37.419,83.489,83.489,83.489c46.139,0,83.489-37.35,83.489-83.489c0-46.077-37.35-83.489-83.489-83.489
				c-26.03,0-49.2,11.917-64.512,30.557v-65.977c19.039-10.254,40.811-16.113,63.915-16.113
				c74.564,0,135.018,60.454,135.018,134.956C1392.744,512.185,1332.29,572.639,1257.722,572.639"/>
			<path id="path26" fill="#ECECEC" d="M1550.669,572.639c-74.572,0-134.956-60.454-134.956-135.022h-0.066V188.418h51.995v249.199
				h0.267c0,46.139,37.35,83.489,83.419,83.489c46.143,0,83.496-37.35,83.496-83.489c0-46.077-37.354-83.489-83.496-83.489
				c-26.03,0-49.197,11.917-64.512,30.557v-65.977c19.043-10.254,40.811-16.113,63.911-16.113
				c74.575,0,134.956,60.454,134.956,134.956C1685.684,512.185,1625.23,572.639,1550.669,572.639"/>
			<path id="path28" fill="#ECECEC" d="M955.924,696.272c-74.564,0-134.952-60.454-134.952-135.018V304.924h51.998v256.329h0.066
				c0,45.806,37.083,82.954,82.958,82.954c45.806,0,82.888-37.148,82.888-82.954h0.066v-29.363H905.394v-51.998h133.553V304.997
				h51.998v256.322C1090.946,635.818,1030.492,696.272,955.924,696.272"/>
			<path id="path30" fill="#ECECEC" d="M2015.376,561.253c0,45.806,37.156,82.954,83.027,82.954l0,0h65.449v51.998h-65.449
				c-74.502,0-134.956-60.454-134.956-135.022V304.865h52.002v169.636h143.672V526.5h-143.672v34.753"/>
			<path id="path32" fill="#ECECEC" d="M2458.521,570.907V407.522l0,0c-0.659-32.886-27.429-59.319-60.513-59.319
				c-33.032,0-59.795,26.433-60.454,59.319h-0.073v163.385h-51.995V407.39h0.066c0.601-52.529,37.28-96.343,86.418-107.988V188.418
				h51.995v110.918c49.138,11.653,85.825,55.459,86.484,107.988h0.073v163.583H2458.521"/>
			<path id="path34" fill="#ECECEC" d="M2750.728,417.175c-5.259-20.903-18.633-39.741-38.877-51.394
				c-39.683-22.976-90.41-9.324-113.32,30.359c-22.896,39.741-9.316,90.41,30.366,113.383c31.824,18.373,70.708,13.246,96.665-9.987
				l-116.704-67.375l26.03-45.015l53.994,31.23l0,0l109.255,63.051c-2.798,8.123-6.321,16.044-10.789,23.767
				c-37.28,64.581-119.839,86.686-184.424,49.402c-64.578-37.284-86.675-119.843-49.395-184.42s119.773-86.682,184.351-49.402
				c36.958,21.299,59.927,57.393,65.918,96.475L2750.728,417.175"/>
			<path id="path36" fill="#ECECEC" d="M2966.778,572.639c-31.362,0-60.117-10.723-82.954-28.564v27.363h-52.002v-266.44h52.002
				v132.686l0,0c0,45.806,37.148,82.958,82.954,82.958l0,0h10.518v51.995L2966.778,572.639"/>
			<path id="path38" fill="#ECECEC" d="M1882.954,428.564l-129.287,60.253l0.059,0.066c-6.255,3.127-8.848,10.583-5.918,16.912
				c2.124,4.658,6.782,7.321,11.58,7.321v0.135h147.532v51.995h-147.532v-0.066c-24.434,0-47.732-13.781-58.792-37.35
				c-15.11-32.355-1.128-70.767,31.099-86.016l0,0l129.287-60.322l0,0c0,0,0,0,0.073,0c6.46-2.996,9.185-10.591,6.189-17.044
				c-2.131-4.666-6.79-7.39-11.653-7.39v-0.066h-151.128v-51.936h151.128v0.073c24.368,0.066,47.739,13.784,58.726,37.412
				C1929.427,374.834,1915.379,413.381,1882.954,428.564"/>
		</g>
	</g>
</g>
<g id="styleguide">
</g>
</svg>
