<?xml version="1.0" encoding="utf-8"?>
<!-- Generator: Adobe Illustrator 16.0.0, SVG Export Plug-In . SVG Version: 6.00 Build 0)  -->
<!DOCTYPE svg PUBLIC "-//W3C//DTD SVG 1.1//EN" "http://www.w3.org/Graphics/SVG/1.1/DTD/svg11.dtd">
<svg version="1.1" id="Layer_1" xmlns="http://www.w3.org/2000/svg" xmlns:xlink="http://www.w3.org/1999/xlink" x="0px" y="0px"
	 width="400px" height="220px" viewBox="0 0 400 220" enable-background="new 0 0 400 220" xml:space="preserve">
<g id="Layer_1_1_">
	<g>
		<g>
			<g>
				<path fill="#ECECEC" d="M3.188,129.92c-0.479-0.318-1.116-0.637-1.594-1.115C0.638,128.008,0,127.052,0,125.936
					c0-4.143,0-8.285,0-12.588c1.116,0.797,1.753,1.752,2.391,2.549c1.912,2.869,3.187,5.896,4.462,9.084
					c0.319,0.638,0.478,1.274,1.116,1.595c0.478,0.157,0.956,0.317,1.275,0.157c2.072-0.797,4.303-1.434,5.418-3.506
					c5.896-11.474,13.228-21.672,22.63-30.438c1.434-1.435,2.071-1.275,2.55,0.796C40,94.223,40,94.86,40,95.339
					c0,9.562,0,19.123,0,28.685c0,2.869-0.956,4.781-3.506,5.896C25.339,129.92,14.343,129.92,3.188,129.92z"/>
				<path fill="#ECECEC" d="M400,125.936c-0.479,0.479-0.956,0.64-1.594,0.64c-1.436,0-3.027,0-4.463,0
					c-1.752,0-3.188-0.957-4.144-2.231c-2.229-2.867-4.462-5.736-6.853-8.765c-1.436,1.752-2.709,3.506-3.983,5.101
					c-0.957,1.273-1.913,2.549-2.868,3.664c-1.115,1.594-2.71,2.231-4.621,2.231c-1.117,0-2.392,0-3.507,0
					c-0.639,0-1.436,0.157-1.754-0.64c-0.317-0.795,0.16-1.273,0.479-1.912c2.709-3.506,5.418-7.012,8.287-10.518
					c0.797-0.956,1.594-2.072,2.391-3.028c0.479-0.478,0.479-0.956,0-1.434c-3.348-4.144-6.535-8.446-9.881-12.59
					c-0.16-0.319-0.479-0.637-0.639-0.956c-0.318-0.797,0-1.594,0.957-1.594c1.911,0,3.823-0.159,5.736,0
					c1.273,0.16,2.391,0.797,3.188,1.913c2.071,2.709,4.145,5.259,6.375,8.127c0.797-1.116,1.594-2.072,2.391-3.028
					c1.115-1.435,2.391-3.028,3.506-4.462c1.275-1.594,2.869-2.55,4.939-2.39c1.274,0.159,2.392,0,3.666,0
					c0.638,0,1.274,0,1.594,0.478c0.317,0.637,0,1.275-0.479,1.753c-1.913,2.39-3.824,4.94-5.736,7.331
					c-1.436,1.913-2.869,3.825-4.463,5.578c-0.318,0.478-0.479,0.797,0,1.275c3.824,4.781,7.489,9.562,11.314,14.341
					c0,0,0,0,0.159,0C400,125.299,400,125.617,400,125.936z"/>
				<path fill="#ECECEC" d="M36.175,90.08c0.159,0.319,0.797,0.16,1.116,0.638c-0.957,0.637-2.072,1.434-3.188,2.072
					c-7.331,5.259-13.546,11.474-18.646,18.806c-0.956,1.434-1.912,2.867-2.868,4.303c-0.16,0.158-0.16,0.637-0.479,0.479
					c-0.318,0-0.318-0.479-0.478-0.638c-0.637-1.595-1.275-3.028-2.39-4.462C7.171,108.566,5.1,108.566,2.231,110
					c-0.637,0.319-1.434,0.797-2.072,1.275C-0.159,111.115,0,110.639,0,110.319c0-5.1,0-10.199,0-15.14
					c0-2.231,0.956-3.984,3.028-4.781c0.16-0.159,0.319-0.159,0.478-0.319C14.343,90.08,25.339,90.08,36.175,90.08z"/>
				<path fill="#ECECEC" d="M263.426,115.418c1.436-3.984,2.709-7.809,3.984-11.474c0.797-2.391,1.754-4.94,2.55-7.331
					c0.638-1.913,1.595-2.55,3.665-2.55c2.709,0,5.578,0,8.287,0c1.594,0,2.391,0.796,2.391,2.39c0,9.243,0,18.486,0,27.729
					c0,1.594-0.797,2.549-2.391,2.549c-1.115,0-2.23,0-3.346,0c-1.754,0-2.551-0.797-2.551-2.549c0-7.012,0-14.023,0-21.036
					c-0.479,0.159-0.479,0.478-0.479,0.797c-2.391,6.693-4.781,13.545-7.331,20.239c-0.638,1.912-1.595,2.549-3.665,2.549
					c-4.622,0-4.622,0-6.216-4.303c-2.23-6.055-4.462-12.271-6.533-18.326c-0.16-0.319-0.16-0.637-0.479-0.797
					c0,0.478,0,0.797,0,1.275c0,6.375,0,12.909,0,19.284c0,2.229-0.797,3.026-3.026,3.026c-1.115,0-2.072,0-3.188,0
					c-1.434,0-2.391-0.957-2.391-2.391c0-9.402,0-18.646,0-28.048c0-1.594,0.797-2.231,2.391-2.231c2.869,0,5.736,0,8.446,0
					c1.753,0,2.709,0.637,3.347,2.391c2.072,6.056,4.144,12.111,6.215,18.167C263.107,114.621,263.268,114.939,263.426,115.418z"/>
				<path fill="#ECECEC" d="M132.908,110.319c0-4.622,0-9.243,0-13.865c0-1.753,0.797-2.55,2.391-2.55c8.605,0,17.052,0,25.657,0
					c1.594,0,2.391,0.797,2.55,2.391c0.16,3.506-0.318,4.144-3.825,4.144c-5.737,0-11.314,0-17.052,0
					c-0.797,0-1.275,0.159-1.115,1.115c0.159,1.594,0,3.028,0,4.622c0,0.797,0.159,0.956,0.956,0.956c5.1,0,10.358,0,15.458,0
					c2.072,0,2.709,0.797,2.709,2.869c0,0.478,0,0.956,0,1.435c-0.16,1.274-1.116,2.071-2.55,2.071c-5.1,0-10.359,0-15.458,0
					c-0.956,0-1.275,0.16-1.275,1.115c0.16,1.435,0,3.028,0,4.463c0,0.797,0.319,0.956,1.116,0.956c6.056,0,11.952,0,18.008,0
					c0.638,0,1.275,0,1.913,0.318c0.637,0.318,0.956,0.955,0.956,1.752c0,0.639,0,1.275,0,1.912c0,1.754-0.797,2.552-2.55,2.552
					c-8.446,0-16.893,0-25.339,0c-1.753,0-2.55-0.957-2.55-2.552C132.908,119.563,132.908,114.939,132.908,110.319z"/>
				<path fill="#ECECEC" d="M126.375,110.319c0,4.462,0,9.083,0,13.546c0,1.912-0.797,2.709-2.869,2.709c-1.115,0-2.231,0-3.347,0
					c-1.593,0-2.39-0.797-2.39-2.551c0-3.347,0-6.853,0-10.199c0-0.797-0.16-1.115-1.116-1.115c-4.462,0-9.083,0-13.546,0
					c-0.797,0-0.956,0.318-0.956,1.115c0,3.348,0,6.533,0,9.881c0,2.23-0.797,2.869-2.869,2.869c-1.115,0-2.072,0-3.187,0
					c-1.594,0-2.55-0.957-2.55-2.551c0-9.242,0-18.485,0-27.729c0-1.594,0.956-2.391,2.39-2.391c1.275,0,2.391,0,3.666,0
					c1.594,0,2.55,0.797,2.55,2.391c0,3.028,0,6.056,0,8.924c0,0.797,0.159,0.956,0.956,0.956c4.462,0,9.084,0,13.546,0
					c0.956,0,1.116-0.319,1.116-1.116c0-2.868,0-5.896,0-8.765c0-1.913,0.797-2.55,2.709-2.55c1.116,0,2.231,0,3.506,0
					c1.594,0,2.55,0.797,2.55,2.55C126.534,101.076,126.375,105.697,126.375,110.319z"/>
				<path fill="#ECECEC" d="M227.729,110.159c2.551,1.274,4.304,3.188,5.578,5.259c1.912,2.869,3.666,5.896,5.578,8.766
					c0.318,0.637,0.797,1.274,0.318,1.912c-0.318,0.637-1.115,0.479-1.753,0.479c-1.274,0-2.392,0-3.665,0
					c-2.072,0-3.506-0.798-4.622-2.552c-1.274-2.07-2.709-4.143-3.983-6.373c-0.638-1.116-1.435-2.071-2.391-2.868
					c-1.115-0.957-2.23-1.435-3.666-1.435c-1.273,0-2.709,0-3.982,0c-0.798,0-0.957,0.318-0.957,0.955c0,3.188,0,6.215,0,9.402
					c0,1.912-0.797,2.709-2.709,2.709c-1.115,0-2.23,0-3.348,0c-1.752,0-2.549-0.797-2.549-2.391c0-9.242,0-18.485,0-27.729
					c0-1.753,0.797-2.391,2.391-2.391c1.274,0,2.391,0,3.664,0c1.594,0,2.391,0.797,2.391,2.391c0,3.187,0,6.534,0,9.721
					c0,0.796,0.16,0.956,0.957,0.956c1.115,0,2.23,0,3.347,0c2.709,0.159,4.622-0.956,6.057-3.188c1.595-2.39,2.868-4.94,4.304-7.49
					c0.955-1.753,2.229-2.709,4.303-2.55c1.273,0.159,2.709,0,3.984,0c1.434,0,1.912,0.637,1.273,1.912
					c-0.797,1.594-1.753,3.188-2.709,4.781c-0.956,1.753-1.913,3.346-2.868,5.1C231.713,107.928,230.119,109.362,227.729,110.159z"
					/>
				<path fill="#ECECEC" d="M73.147,126.574c-3.028,0-6.215,0-9.243-0.797c-4.94-1.275-8.127-4.463-9.402-9.402
					c-1.116-4.463-1.116-8.925,0.159-13.228c1.275-4.462,4.462-7.49,8.924-8.605c5.418-1.435,10.996-1.275,16.574-0.319
					c2.709,0.478,5.1,1.912,6.853,4.144c1.275,1.593,1.753,3.346,1.753,5.418c0,1.594-0.957,2.231-2.55,2.391
					c-2.869,0.319-5.1-0.319-6.375-3.347c-0.797-1.753-2.391-2.55-4.303-2.709c-2.55-0.16-5.259-0.16-7.809,0.159
					c-2.709,0.478-4.462,2.072-4.94,4.781c-0.638,3.347-0.797,6.853,0,10.199c0.637,2.868,2.39,4.304,5.418,4.622
					c2.55,0.318,5.1,0.159,7.649,0.159c2.231,0,3.825-1.274,4.94-3.347c1.434-2.709,3.984-3.666,6.853-2.709
					c0.956,0.317,1.594,1.115,1.594,2.229c0.159,3.507-1.435,5.896-4.144,7.81c-2.55,1.754-5.578,2.391-8.765,2.551
					C75.219,126.732,74.104,126.574,73.147,126.574z"/>
				<path fill="#ECECEC" d="M184.701,93.745c2.55,0,5.1-0.16,7.49,0.478c3.028,0.956,5.737,2.231,7.331,5.1
					c0.956,1.434,1.275,3.187,1.117,4.781c-0.161,1.116-0.958,1.913-2.073,2.072c-0.957,0-2.072,0-3.028,0
					c-1.435,0-2.231-0.956-2.709-2.072c-0.478-0.797-0.797-1.753-1.594-2.391c-0.956-0.956-2.072-1.434-3.346-1.593
					c-2.391-0.16-4.94-0.16-7.331,0c-3.347,0.319-5.1,2.072-5.737,5.578c-0.478,3.028-0.478,6.215,0.159,9.243
					c0.638,3.027,2.391,4.621,5.578,4.939c2.55,0.318,4.94,0.159,7.49,0.159c2.231,0,3.825-1.274,4.94-3.188
					c1.434-2.709,3.665-3.664,6.693-2.709c1.275,0.318,1.752,1.274,1.752,2.709c-0.158,3.188-1.594,5.578-4.144,7.172
					c-2.231,1.435-4.781,2.23-7.49,2.391c-4.303,0.16-8.446,0.318-12.749-0.479c-6.215-1.274-10.04-5.578-10.677-11.951
					c-0.319-3.188-0.478-6.534,0.319-9.722c1.275-5.896,5.578-9.562,11.633-10.518C180.239,93.745,182.47,93.745,184.701,93.745z"/>
				<path fill="#ECECEC" d="M324.781,125.299c0-0.318,0-0.638-0.16-1.115c-1.752-7.172-3.824-14.343-5.418-21.514
					c-0.479-2.231-1.434-3.984-2.709-5.418c-1.753-1.912-3.984-3.028-6.534-3.506c-0.638-0.16-1.274-0.16-1.912-0.319
					c-0.797,0-1.435,0-2.231,0c-3.664,0.319-6.692,2.072-8.604,4.781c-0.797,1.116-1.274,2.231-1.753,3.666
					c-0.956,3.666-1.912,7.49-2.868,11.155c-0.957,3.666-1.911,7.49-2.868,11.156c-0.16,0.478-0.16,0.797-0.16,1.114
					c0.16,0.956,0.797,1.435,2.071,1.435c1.275,0,2.392,0,3.666,0c0.479,0,0.798,0,1.115-0.158c0.638-0.16,1.274-0.639,1.594-1.275
					c0.16-0.318,0.318-0.638,0.479-1.115c0.158-0.797,0.479-1.435,0.637-2.23c0.16-0.797,0.318-1.436,0.479-2.23
					c0-0.16,0.16-0.479,0.16-0.638c0.318-0.479,0.637-0.638,1.274-0.638c3.028,0,6.056,0,9.083,0c1.275,0,2.869-0.479,3.666,0.158
					c0.797,0.479,0.797,1.595,0.956,2.551c0,0.318,0.159,0.638,0.159,0.956c0.317,0.956,0.479,1.754,0.797,2.391
					c0.797,1.753,1.594,1.912,4.781,1.912c0.637,0,1.273,0,1.912,0c0.479,0,0.797,0,1.114-0.159
					C324.462,126.255,324.781,125.936,324.781,125.299z M311.873,112.391c-0.797,0-1.594,0-2.23,0c-0.797,0-1.595,0-2.231,0
					c-1.595,0-3.027,0-4.621,0c-0.638,0-0.797-0.16-0.638-0.797c0.638-2.231,1.273-4.462,1.752-6.693
					c0.318-1.275,0.957-2.231,1.912-3.028c1.115-0.956,1.912-0.797,3.029,0c0.955,0.797,1.594,1.753,1.911,3.028
					c0.638,2.231,1.274,4.462,1.913,6.693C312.67,112.23,312.51,112.391,311.873,112.391z"/>
			</g>
		</g>
		<path fill="#ECECEC" d="M353.943,112.55c1.912,0.956,3.029,2.392,3.983,3.825c1.595,2.549,3.349,5.1,4.941,7.809
			c0.317,0.637,0.797,1.274,0.317,1.912c-0.479,0.637-1.115,0.479-1.754,0.479c-1.273,0-2.549,0-3.982,0
			c-2.071,0-3.506-0.798-4.463-2.392c-1.274-2.072-2.549-4.144-3.823-6.057c-1.437-2.391-3.507-3.665-6.375-3.506
			c-1.115,0-2.231,0-3.506,0c-0.957,0-1.275,0.16-1.275,1.115c0,2.709,0,5.578,0,8.287c0,1.754-0.797,2.551-2.55,2.551
			c-1.273,0-2.391,0-3.665,0c-1.594,0-2.392-0.957-2.392-2.391c0-9.244,0-18.646,0-27.89c0-1.594,0.798-2.391,2.392-2.391
			c6.375,0,12.59,0,18.964,0c3.825,0,7.171,1.275,9.563,4.462c3.983,5.418,1.754,11.792-4.621,13.705
			C355.219,112.23,354.741,112.391,353.943,112.55z M343.745,108.247L343.745,108.247c1.753,0,3.506,0,5.259,0
			c0.318,0,0.639-0.159,0.956-0.159c2.55-0.479,3.825-1.913,3.825-3.666s-1.436-3.347-3.984-3.666
			c-3.666-0.478-7.49-0.159-11.154-0.318c-0.639,0-0.479,0.478-0.479,0.796c0,2.072,0,4.144,0,6.215
			c0,0.638,0.158,0.797,0.797,0.797C340.559,108.247,342.15,108.247,343.745,108.247z"/>
	</g>
</g>
</svg>
