<?xml version="1.0" encoding="utf-8"?>
<!-- Generator: Adobe Illustrator 16.0.0, SVG Export Plug-In . SVG Version: 6.00 Build 0)  -->
<!DOCTYPE svg PUBLIC "-//W3C//DTD SVG 1.1//EN" "http://www.w3.org/Graphics/SVG/1.1/DTD/svg11.dtd">
<svg version="1.1" xmlns="http://www.w3.org/2000/svg" xmlns:xlink="http://www.w3.org/1999/xlink" x="0px" y="0px" width="200px"
	 height="100px" viewBox="0 0 200 200" enable-background="new 0 0 200 200" xml:space="preserve">
<g id="shadow">
</g>
<g id="elemants">
	<g>
		<g>
			<path opacity="0.15" fill="#333333" d="M168.789,41.531h-0.737H28.754h-1.127c-3.195,0-6.185,2.012-7.316,4.801
				c-0.354,0.76-0.818,1.625-0.818,2.507v0.397v12.408v90.695c0,4.209,3.926,8.191,8.135,8.191h140.425
				c4.209,0,7.44-3.982,7.44-8.191V61.645V49.236v-0.397C175.492,44.63,172.998,41.531,168.789,41.531z"/>
			<g>
				<path fill="#333333" d="M178.492,148.912c0,4.208-3.412,7.619-7.62,7.619H30.112c-4.208,0-7.62-3.411-7.62-7.619V46.15
					c0-4.208,3.412-7.619,7.62-7.619h140.76c4.208,0,7.62,3.411,7.62,7.619V148.912z"/>
				<path fill="#ECECEC" d="M178.492,59.531v-13.5c0-4.208-3.904-7.5-8.112-7.5H29.62c-4.209,0-7.128,3.292-7.128,7.5v13.5H178.492z
					"/>
				<circle fill="#E74C3C" cx="35.295" cy="48.967" r="4.287"/>
				<path fill="#D9D9D9" d="M170.492,50.436c0,1.71-1.387,3.096-3.097,3.096h-46.807c-1.71,0-3.097-1.386-3.097-3.096v-0.809
					c0-1.71,1.387-3.096,3.097-3.096h46.807c1.71,0,3.097,1.386,3.097,3.096V50.436z"/>
				<g>
					<g>
						<path fill="#ECECEC" d="M91.527,114.803v7.826l-27.82-12.058v-6.691l27.82-12.058v7.882l-19.386,7.466L91.527,114.803z"/>
						<path fill="#ECECEC" d="M108.619,91.656l-7.742,31.885c-0.259,1.051-0.484,1.881-0.678,2.489s-0.488,1.083-0.885,1.424
							s-0.973,0.512-1.729,0.512c-1.881,0-2.82-0.812-2.82-2.434c0-0.424,0.184-1.483,0.553-3.18l7.715-31.885
							c0.406-1.696,0.793-2.857,1.162-3.484c0.368-0.627,1.088-0.94,2.156-0.94c0.922,0,1.627,0.222,2.115,0.664
							s0.733,1.051,0.733,1.825C109.2,89.104,109.007,90.146,108.619,91.656z"/>
						<path fill="#ECECEC" d="M140.208,110.571l-27.819,12.112v-7.825l19.44-7.633l-19.44-7.521v-7.771l27.819,12.001V110.571z"/>
					</g>
				</g>
			</g>
		</g>
		<g>
			<path fill="#FFFFFF" d="M189.059,127.229c-6.971-6.302-16.014-8.443-24.226-3.166c-7.024,4.516-10.969,12.778-9.567,21.076
				c1.518,9.003,9.236,15.628,18.187,15.821c0.084,0.085,0.209,0.139,0.378,0.124c8.165-0.626,16.13-3.745,19.488-11.75
				C196.462,141.835,195.222,132.79,189.059,127.229z"/>
			<path fill="#0071BC" d="M179.777,134.399c-0.725-0.008-1.441-0.008-2.166-0.008c1.757,4.83,4.129,9.905,5.316,14.913
				c0.57-2.18,1.332-4.313,1.694-6.549c0.601-3.665-0.385-6.146-1.409-9.565c-0.563-1.856-0.363-3.429,0.739-4.607
				c-3.443-2.288-7.318-3.46-11.546-2.742c-2.689,0.446-5.092,1.547-7.211,3.258c-0.824,0.671-1.525,1.425-2.342,2.05
				c1.24,0,2.48,0.038,3.713,0.07c0.37,0.014,0.563,0.291,0.577,0.584c0.108,0.076,0.186,0.199,0.2,0.386
				c0,0.047,0.009,0.091,0.009,0.138c0.03,0.525,0,1.063-0.017,1.588c-0.007,0.26-0.231,0.532-0.516,0.516
				c-0.563-0.038-1.125-0.125-1.687-0.216c2.025,4.575,3.697,9.374,5.562,14.034c0.107-0.291,0.224-0.585,0.33-0.878
				c0.579-2.479,1.279-5.022,2.296-7.255c-0.908-1.826-1.641-3.938-2.01-5.908c-0.708-0.055-1.418-0.116-2.125-0.209
				c-0.278-0.037-0.394-0.285-0.34-0.484c-0.03-0.055-0.054-0.117-0.063-0.193c-0.045-0.354-0.084-0.692-0.1-1.047
				c-0.008-0.116-0.008-0.232-0.008-0.348c0-0.301,0.208-0.453,0.431-0.484c0.032-0.078,0.085-0.147,0.179-0.162
				c1.994-0.324,4.027-0.216,6.038-0.192c1.349,0.015,3.575-0.386,4.814,0.216C180.471,131.456,180.285,134.399,179.777,134.399z
				 M189.059,127.42c6.163,5.561,7.403,14.605,4.26,22.105c-3.358,8.005-11.323,11.124-19.488,11.75
				c-0.169,0.015-0.294-0.039-0.378-0.124c-8.95-0.193-16.669-6.818-18.187-15.821c-1.401-8.298,2.543-16.561,9.567-21.076
				C173.045,118.977,182.088,121.118,189.059,127.42L189.059,127.42z M184.145,154.265c4.968-4.813,7.587-10.53,5.908-17.493
				C188.11,142.603,186.17,148.465,184.145,154.265L184.145,154.265z M179.839,156.769c-0.963-1.765-1.549-3.767-2.266-5.63
				c-0.808-2.105-1.655-4.199-2.411-6.318c-1.463,4.197-2.896,8.428-4.621,12.495c1.688,0.262,3.374,0.446,5.083,0.323
				C177.111,157.538,178.444,157.13,179.839,156.769L179.839,156.769z M167.244,155.606c-2.474-6.648-5.223-13.251-7.434-19.983
				C156.121,143.188,160.288,151.446,167.244,155.606L167.244,155.606z M167.244,155.606"/>
		</g>
	</g>
</g>
<g id="animation">
</g>
<g id="Isolation_Mode">
</g>
<g id="Layer_1">
</g>
</svg>
