<?xml version="1.0" encoding="utf-8"?>
<!-- Generator: Adobe Illustrator 16.0.0, SVG Export Plug-In . SVG Version: 6.00 Build 0)  -->
<!DOCTYPE svg PUBLIC "-//W3C//DTD SVG 1.1//EN" "http://www.w3.org/Graphics/SVG/1.1/DTD/svg11.dtd">
<svg version="1.1" xmlns="http://www.w3.org/2000/svg" xmlns:xlink="http://www.w3.org/1999/xlink" x="0px" y="0px" width="170px"
	 height="220px" viewBox="127.833 0 170 220" enable-background="new 127.833 0 170 220" xml:space="preserve">
<g id="Layer_1">
	<g>
		<path fill="#ECECEC" d="M246.293,141.449c-1.442,0.533-2.857,0.881-4.287,1.442c-2.136,0.842-6.446,1.995-8.825,2.508
			c-3.067,0.656-5.983,1.488-9.196,2.133c-3.313,0.663-6.266,1.02-9.705,1.624c-3.185,0.56-6.951,0.753-10.347,0.986
			c-3.545,0.244-7.225,0.4-11.063,0.4h-0.8c-13.66,0-26.691-2.147-35.812-6.711c-8.773-4.387-16.974-12.52-16.974-25.548v-1.199
			c0-6.129,1.882-10.838,3.652-15.276c0.777-1.948,2.243-4.431,3.359-6.105c0.698-1.045,1.265-1.807,1.996-2.8
			c0.656-0.891,1.677-1.847,2.188-2.612v-4.267c-2.125,1.424-4.359,4.223-6.162,6.103c-2.046,2.13-3.563,4.508-5.249,7.015
			c-2.502,3.721-6.051,12.378-6.051,18.476v4.266c0,7.525,2.985,14.216,6.023,18.768c3.441,5.157,8.026,8.206,13.278,11.518
			c4.145,2.613,12.514,5.511,18.166,6.629c6.97,1.376,14.002,2.409,22.384,2.409h4.133c25.758,0,51.931-7.479,68.781-16.397v-12.129
			c-4.559,2.412-10.173,5.599-15.437,7.224C249.229,140.249,247.467,141.015,246.293,141.449z"/>
		<path fill="#ECECEC" d="M292.259,85.811c-0.253-1.391-0.757-3.172-1.238-4.359c-1.204-2.961-2.205-4.964-4.005-7.326
			c-3.328-4.372-7.294-7.532-12.254-10.273c-9.103-5.036-22.959-8.086-37.103-8.086h-1.198c-14.595,0-26.663,2.426-38.071,5.652
			c-3.013,0.853-5.463,1.731-8.27,2.662c-2.323,0.769-5.725,2.057-7.827,3.103c-2.493,1.239-4.979,2.303-7.419,3.512
			c-1.292,0.64-6.256,3.678-7.064,3.866v3.198c1.1-0.255,5.15-2.492,6.708-3.154c2.16-0.92,4.872-2.284,7.048-2.951
			c0.986-0.302,2.618-0.918,3.596-1.335c1.188-0.508,2.43-0.816,3.692-1.242c2.406-0.806,5.096-1.715,7.641-2.354
			c5.485-1.373,10.317-2.491,16.314-3.547c5.111-0.902,12.3-1.811,18.052-1.811h5.997c11.682,0,24.322,2.68,31.814,6.844
			c4.544,2.524,7.598,4.65,10.733,8.594c2.361,2.972,5.306,8.9,5.306,14.154v2.265c0,5.537-2.876,11.49-5.275,14.72
			c-1.457,1.956-2.897,3.701-4.686,5.311c-0.869,0.784-4.925,4.004-5.9,4.23v8.798c1.881-0.156,7.533-3.797,8.986-4.877
			c2.678-1.991,5.076-4.281,7.12-6.878c2.323-2.95,3.576-5.114,5.268-8.729c0.766-1.637,1.205-3.317,1.766-5.167
			c0.223-0.75,0.972-6.049,0.988-6.074v-3.866C292.934,90.621,292.357,86.366,292.259,85.811z"/>
		<path fill="#ECECEC" d="M250.189,112.687v-3.599c0-4.241-1.518-8.324-3.368-10.762c-1.76-2.313-5.327-4.967-9.297-4.967h-2.533
			c-4.19,0-7.984,2.63-10.032,4.896c-2.089,2.311-3.828,6.716-3.828,11.099v1.599c0,9.165,5.623,15.861,14.795,15.861h1.733
			c2.778,0,4.76-0.672,6.747-1.518c2.164-0.918,3.265-2.485,4.885-3.58l-5.232-4.898c-1.031,1.54-3.888,3.065-6.534,3.065h-1.466
			c-3.471,0-6.663-2.95-6.663-6.266v-0.932H250.189z M229.396,106.154c0-3.005,2.928-5.999,5.998-5.999h0.665
			c3.485,0,5.866,2.957,5.866,6.266v0.666h-12.529V106.154z"/>
		<path fill="#ECECEC" d="M198.603,126.282v-22.794c0-5.409-3.681-9.597-9.065-9.597h-17.596v32.392h8.132v-25.726h7.33
			c1.618,0,2.935,1.251,2.935,2.799v22.927H198.603z"/>
		<path fill="#ECECEC" d="M204.601,84.958v31.726c0,5.475,3.56,9.598,8.931,9.598h5.6v-6.933h-4.132
			c-1.225,0-2.133-1.415-2.133-2.665v-16.128h6.265v-6.666h-6.265v-8.932H204.601z"/>
		<path fill="#ECECEC" d="M263.253,126.016V80.426h-8.266v37.992c0,2.212,1.341,4.218,2.498,5.368
			c0.622,0.615,1.602,1.124,2.513,1.487C261.271,125.779,261.93,125.708,263.253,126.016z"/>
		<path fill="#ECECEC" d="M164.61,126.682V93.891h-8.234l-0.195,7.597l0.032,16.131C156.213,123.083,159.416,126.566,164.61,126.682
			z"/>
		<rect x="156.347" y="81.494" fill="#ECECEC" width="8.263" height="7.865"/>
		<path fill="#ECECEC" d="M271.295,84.019h0.334c0.201,0,0.357,0.041,0.462,0.122c0.151,0.109,0.351,0.389,0.6,0.828l0.314,0.561
			h0.703l-0.434-0.696c-0.207-0.33-0.384-0.566-0.528-0.705c-0.074-0.076-0.177-0.138-0.301-0.188
			c0.308-0.024,0.553-0.131,0.739-0.326c0.185-0.193,0.277-0.418,0.277-0.681c0-0.184-0.055-0.357-0.166-0.522
			c-0.111-0.163-0.259-0.277-0.447-0.343c-0.187-0.066-0.49-0.098-0.908-0.098h-1.225v3.559h0.579V84.019z M271.295,82.452h0.651
			c0.278,0,0.472,0.02,0.577,0.061c0.103,0.041,0.184,0.103,0.241,0.185c0.06,0.085,0.089,0.179,0.089,0.284
			c0,0.165-0.062,0.296-0.182,0.395c-0.121,0.099-0.35,0.149-0.682,0.149h-0.695V82.452z"/>
		<path fill="#ECECEC" d="M270.523,86.572c0.523,0.292,1.072,0.438,1.646,0.438s1.122-0.146,1.647-0.438
			c0.523-0.29,0.934-0.699,1.223-1.226c0.291-0.525,0.436-1.074,0.436-1.645c0-0.575-0.147-1.13-0.442-1.659
			c-0.294-0.532-0.706-0.94-1.236-1.226c-0.53-0.284-1.07-0.426-1.627-0.426c-0.555,0-1.1,0.143-1.627,0.426
			c-0.529,0.285-0.943,0.693-1.239,1.226c-0.297,0.529-0.444,1.084-0.444,1.659c0,0.571,0.146,1.119,0.438,1.645
			C269.589,85.873,269.998,86.282,270.523,86.572z M269.405,83.702c0-0.48,0.125-0.941,0.373-1.384
			c0.249-0.44,0.595-0.782,1.033-1.02c0.44-0.239,0.893-0.358,1.357-0.358c0.463,0,0.914,0.119,1.354,0.358
			c0.442,0.238,0.787,0.58,1.034,1.02c0.246,0.443,0.369,0.904,0.369,1.384c0,0.476-0.122,0.933-0.364,1.37
			c-0.242,0.437-0.582,0.777-1.021,1.022c-0.438,0.244-0.897,0.367-1.373,0.367c-0.477,0-0.934-0.123-1.373-0.367
			c-0.438-0.245-0.777-0.585-1.024-1.022C269.529,84.634,269.405,84.178,269.405,83.702z"/>
	</g>
</g>
<g id="styleguide">
</g>
</svg>
