<?xml version="1.0" encoding="utf-8"?>
<!-- Generator: Adobe Illustrator 16.0.0, SVG Export Plug-In . SVG Version: 6.00 Build 0)  -->
<!DOCTYPE svg PUBLIC "-//W3C//DTD SVG 1.1//EN" "http://www.w3.org/Graphics/SVG/1.1/DTD/svg11.dtd">
<svg version="1.1" xmlns="http://www.w3.org/2000/svg" xmlns:xlink="http://www.w3.org/1999/xlink" x="0px" y="0px" width="1000px"
	 height="1000px" viewBox="0 0 1000 1000" enable-background="new 0 0 1000 1000" xml:space="preserve">
<g id="Layer_1">
</g>
<g id="Design">
</g>
<g id="module">
</g>
<g id="elemants">
	<g>
		<g>
			<path fill="#0BAFE8" d="M586.051,632H424.06c-108.809,0-196.149,78.5-198.414,185.893c-6.346,32.303-14.924,84.366,6.345,105.823
				c55.637,53.822,177.146,71.35,273.075,71.35c95.941,0,217.449-20.37,272.866-74.193c21.27-21.438,12.9-70.394,6.335-102.505
				C782.231,710.783,694.891,632,586.051,632z M755.618,887.812c-38.426,38.677-134.787,62.38-245.852,62.38
				c-111.063,0-213.282-28.51-249.706-64.942c-4.3-6.523-5.638-40.29-2.653-71.935c5.93-62.889,57.69-136.281,152.847-138.932
				c44.446-1.239,177.851,0,177.851,0c85.307,0,163.291,56.642,166.639,142.68C755.498,836.431,759.939,881.267,755.618,887.812z"/>
			<path fill="#0BAFE8" d="M505.065,591.013c89.585,0,159.937-70.98,159.937-159.14c0-88.158-70.352-159.159-159.937-159.159
				c-87.351,0-159.956,71.001-159.956,159.159C345.109,520.032,415.48,591.013,505.065,591.013z M505.065,313.448
				c66.072,0,119.453,53.779,119.453,118.217c0,64.436-53.381,118.236-119.453,118.236c-66.061,0-119.453-53.801-119.453-118.236
				C385.613,367.228,439.005,313.448,505.065,313.448z"/>
		</g>
		<path fill="#0BAFE8" d="M988.335,386.827l-90.116-111.324c-6.209-7.683-17.467-8.872-25.164-2.64
			c-7.708,6.213-8.888,17.494-2.659,25.174l56.981,70.363l-1.815,0.6H779.784C767.556,369,758,378.937,758,391.165v0.475
			c0,12.229,9.556,22.36,21.784,22.36H926.61l-74.789,60.422c-7.683,6.211-8.871,17.413-2.639,25.11
			c4.165,5.158,10.597,7.362,16.7,6.396c3.015-0.477,5.93-1.732,8.474-3.78l111.339-90.143
			C993.379,405.795,994.565,394.507,988.335,386.827z"/>
		<path fill="#0BAFE8" d="M11.665,386.827l90.116-111.324c6.209-7.683,17.467-8.872,25.165-2.64
			c7.708,6.213,8.887,17.494,2.659,25.174L72.623,368.4l1.815,0.6h145.777c12.229,0,22.785,9.937,22.785,22.165v0.475
			c0,12.229-10.556,22.36-22.785,22.36H73.389l74.789,60.422c7.683,6.211,8.871,17.413,2.639,25.11
			c-4.165,5.158-10.597,7.362-16.701,6.396c-3.015-0.477-5.93-1.732-8.473-3.78l-111.34-90.143
			C6.621,405.795,5.435,394.507,11.665,386.827z"/>
		<path fill="#0BAFE8" d="M505.636,8.974L616.961,99.09c7.683,6.208,8.871,17.466,2.64,25.163
			c-6.213,7.709-17.494,8.888-25.173,2.66l-70.096-56.981L524,71.746v145.777C524,229.753,513.528,240,501.299,240h-0.474
			C488.596,240,479,229.753,479,217.523V70.697l-60.689,74.789c-6.211,7.684-17.547,8.871-25.246,2.639
			c-5.158-4.165-7.429-10.596-6.463-16.699c0.477-3.016,1.697-5.932,3.746-8.475l90.126-111.339
			C486.685,3.929,497.958,2.743,505.636,8.974z"/>
	</g>
</g>
</svg>
