<?xml version="1.0" encoding="utf-8"?>
<!-- Generator: Adobe Illustrator 16.0.0, SVG Export Plug-In . SVG Version: 6.00 Build 0)  -->
<!DOCTYPE svg PUBLIC "-//W3C//DTD SVG 1.1//EN" "http://www.w3.org/Graphics/SVG/1.1/DTD/svg11.dtd">
<svg version="1.1" xmlns="http://www.w3.org/2000/svg" xmlns:xlink="http://www.w3.org/1999/xlink" x="0px" y="0px" width="400px"
	 height="220px" viewBox="0 0 400 220" enable-background="new 0 0 400 220" xml:space="preserve">
<g id="Layer_1">
	<g>
		<path fill="#ECECEC" d="M52.106,118.566c0.071,0.024,0.138,0.059,0.199,0.104c1.285,2.329,2.555,2.646,4.764,1.07
			c0.92-0.666,1.776-1.418,2.555-2.244c1.253-1.314,1.658-2.891,1.049-4.643c-0.287-0.826-0.101-1.452,0.478-2.111
			c1.099-1.257,1.899-2.677,1.799-4.437c0.018-0.216,0-0.433-0.056-0.643c-1.479-3.34-1.869-7.227-4.837-9.827
			c-0.818-0.729-1.689-1.395-2.606-1.994c-0.514-0.33-0.812-0.621-0.953-1.264c-0.612-2.756-3.235-4.957-5.979-5.15
			c-0.272-0.019-0.643-0.066-0.788-0.244c-1.499-1.741-3.45-1.476-5.354-1.135c-1.863,0.332-3.698,0.807-5.542,1.238
			c-0.277,0.067-0.539,0.187-0.771,0.353c-0.97,0.7-1.927,1.422-2.882,2.142c-0.227,0.171-0.55,0.332-0.627,0.565
			c-0.495,1.516-1.998,2.175-2.818,3.381c-1.452,2.142-2.863,4.313-4.111,6.572c-0.726,1.314-1.3,2.784-0.428,4.36
			c0.103,0.184-0.047,0.55-0.152,0.798c-0.237,0.557-0.529,1.09-0.786,1.638c-0.73,1.559-0.524,2.439,0.816,3.553
			c0.238,0.196,0.46,0.412,0.717,0.643c-0.167,0.244-0.272,0.428-0.405,0.584c-1.645,1.961-1.101,4.359,1.188,5.522
			c0.613,0.317,1.148,0.767,1.567,1.315c1.33,1.764,3.508,2.455,5.829,1.713c0.708-0.229,1.33-0.343,2.008,0.162
			c0.679,0.506,1.307,0.107,1.848-0.336c0.856-0.702,1.827-0.984,2.887-0.738c0.326,0.074,0.782,0.467,0.82,0.76
			c0.606,4.648,0.841,9.309-0.231,13.919c-0.285,1.221-0.856,2.405-1.471,3.51c-0.548,0.987-1.521,1.313-2.67,1.054
			c-8.58-1.935-15.272-6.584-20.078-13.947c-3.693-5.537-5.481-12.127-5.094-18.771c0.441-8.534,3.756-15.846,10.018-21.752
			c7.034-6.621,15.441-9.452,24.977-8.621c8.009,0.698,14.775,4.154,20.309,10.052c4.082,4.355,6.668,9.474,7.96,15.251
			c1.18,5.278,1.039,10.568-0.587,15.73c-2.818,8.959-8.617,15.47-16.94,19.664c-2.355,1.187-5.018,1.775-7.553,2.594
			c-1.056,0.34-1.865-0.127-2.471-1.009c-1.178-1.713-1.595-3.7-1.677-5.675c-0.152-3.73-0.043-7.471-0.021-11.205
			c0-0.588,0.105-1.189,0.936-1.125C48.847,120.09,50.618,119.699,52.106,118.566z"/>
		<path fill="#ECECEC" d="M133.31,98.977c-0.597,2.257-1.146,4.527-1.803,6.765c-1.499,5.09-3.054,10.161-4.561,15.247
			c-0.788,2.662-1.514,5.343-2.283,8.012c-0.491,1.713-0.782,1.91-2.57,1.912c-1.499,0-2.998-0.021-4.497,0
			c-0.831,0.017-1.33-0.294-1.561-1.123c-1.201-4.318-2.437-8.629-3.64-12.948c-1.071-3.872-2.159-7.743-3.212-11.626
			c-0.516-1.917-0.953-3.854-1.426-5.781l-0.283-0.026c-0.078,0.33-0.136,0.664-0.174,1c-0.375,6.546-0.73,13.092-1.115,19.639
			c-0.178,3.023-0.428,6.045-0.625,9.066c-0.096,1.394-0.476,1.779-1.835,1.785c-1.927,0-3.854,0.018-5.782,0
			c-1.244-0.01-1.568-0.322-1.458-1.526c0.396-4.398,0.837-8.79,1.246-13.187c0.458-4.926,0.893-9.851,1.358-14.789
			c0.357-3.792,0.751-7.583,1.126-11.375c0.13-1.313,0.283-2.621,0.368-3.936c0.049-0.769,0.416-1.088,1.148-1.085
			c3.283,0,6.565,0,9.85,0c0.696,0,1.034,0.349,1.206,0.974c0.627,2.302,1.285,4.596,1.897,6.899
			c1.4,5.229,2.799,10.459,4.165,15.697c0.475,1.824,0.846,3.677,1.27,5.514c0.071,0.37,0.247,0.712,0.508,0.985
			c0.371-1.649,0.679-3.313,1.12-4.941c2.142-7.867,4.315-15.724,6.455-23.591c0.295-1.083,0.874-1.585,2.032-1.568
			c2.998,0.045,5.996,0.032,8.994,0c0.899,0,1.285,0.381,1.362,1.253c0.295,3.405,0.621,6.808,0.932,10.21
			c0.354,3.866,0.707,7.731,1.058,11.596c0.371,4.15,0.717,8.302,1.088,12.452c0.26,2.908,0.53,5.816,0.812,8.723
			c0.139,1.467-0.049,1.693-1.535,1.7c-1.927,0-3.854,0-5.782,0c-0.893,0-1.471-0.235-1.538-1.307
			c-0.214-3.483-0.503-6.964-0.765-10.445c-0.351-4.688-0.719-9.375-1.045-14.065c-0.141-2.021-0.19-4.049-0.283-6.075
			L133.31,98.977z"/>
		<path fill="#ECECEC" d="M343.958,117.146c-0.345-0.126-0.688-0.254-1.034-0.377c-4.521-1.588-6.525-5.375-5.973-10.203
			c0.416-3.641,2.366-6.21,5.449-7.956c3.226-1.816,6.773-2.334,10.414-1.957c2.194,0.227,4.371,0.602,6.514,1.122
			c3.048,0.741,5.782,0.124,8.373-1.482c1.256-0.779,1.45-0.784,2.289,0.448c0.703,1.03,1.362,2.088,2.064,3.118
			c0.416,0.606,0.248,1.03-0.291,1.452c-1.908,1.499-4.079,1.927-6.438,1.689c-0.365-0.037-0.734-0.047-1.256-0.079
			c0.081,0.253,0.187,0.499,0.314,0.732c3.076,4.114,1.627,10.268-3.447,13.016c-2.57,1.394-5.326,1.943-8.238,1.854
			c-1.643-0.051-2.896,0.887-4.047,1.9c-0.305,0.333-0.43,0.793-0.334,1.234c0.113,0.313,0.685,0.623,1.07,0.643
			c2.171,0.116,4.349,0.12,6.522,0.215c1.907,0.076,3.726,0.486,5.598,0.993c6.853,1.853,7.989,10.064,5.081,14.393
			c-1.762,2.618-4.255,4.257-7.313,5.021c-5.065,1.299-10.377,1.293-15.439-0.017c-3.748-0.969-6.707-3.016-7.738-7.022
			c-0.348-1.347-0.41-2.771,0.289-4.068c0.18-0.33,0.642-0.711,0.976-0.722c2.066-0.066,4.138-0.021,6.21-0.039
			c0.653,0,0.917,0.268,0.844,0.906c-0.023,0.248-0.034,0.498-0.031,0.748c-0.02,1.9,0.706,3.374,2.582,3.995
			c3.406,1.128,6.813,1.149,10.034-0.591c1.822-0.985,2.392-2.49,2.048-4.529c-0.234-1.375-1.566-2.569-3.549-2.765
			c-2.688-0.271-5.402-0.261-8.097-0.49c-2.122-0.161-4.233-0.448-6.323-0.856c-1.713-0.352-2.771-1.522-3.02-3.323
			c-0.289-2.091,0.064-3.944,2.061-5.069c0.922-0.52,1.939-0.873,2.916-1.297c0.305-0.131,0.617-0.242,0.926-0.364v-0.272H343.958z
			 M351.145,113.123l0.068-0.237c0.321,0,0.643,0,0.961,0c2.688-0.095,4.455-1.606,4.711-4.028c0.332-3.101-0.959-5.336-3.666-5.867
			c-1.357-0.234-2.748-0.212-4.098,0.064c-2.005,0.381-3.061,1.882-3.355,3.829c-0.309,2.034-0.057,4.035,1.88,5.18
			c1.021,0.604,2.325,0.722,3.499,1.062V113.123z"/>
		<path fill="#ECECEC" d="M180.416,107.755c0-7.064,0-14.13,0-21.2c0-1.484,0.085-1.574,1.578-1.581c2.034,0,4.069-0.013,6.101,0
			c1.229,0.011,1.412,0.214,1.414,1.46c0,5.066,0.03,10.131-0.013,15.204c0,0.953,0.283,1.209,1.216,1.199
			c3.854-0.047,7.709-0.047,11.563,0c0.908,0,1.152-0.308,1.146-1.173c-0.032-5.101,0-10.204-0.038-15.304
			c0-1.021,0.308-1.403,1.336-1.381c2.141,0.043,4.283,0,6.424,0c1.414,0,1.533,0.124,1.533,1.521c0,8.565,0,17.131,0,25.696
			c0,5.711-0.005,11.422-0.015,17.132c0,1.435-0.163,1.595-1.603,1.595c-2.068,0-4.139,0-6.209,0c-1.178,0-1.45-0.277-1.45-1.449
			c0-5.996-0.028-11.992,0.017-17.988c0-0.982-0.271-1.316-1.248-1.306c-3.817,0.037-7.635,0.037-11.452,0
			c-0.927,0-1.227,0.3-1.22,1.242c0.036,5.921,0.019,11.844,0.013,17.773c0,1.486-0.244,1.713-1.758,1.728c-1.891,0-3.781,0-5.672,0
			c-1.499,0-1.664-0.149-1.666-1.645c0-7.17,0-14.342,0-21.512l0,0L180.416,107.755z"/>
		<path fill="#ECECEC" d="M325.936,128.654c-0.318,0.268-0.744,0.643-1.182,0.99c-2.998,2.447-6.504,2.65-10.142,2.282
			c-2.998-0.302-5.707-1.253-7.429-3.837c-0.869-1.29-1.453-2.75-1.713-4.283c-0.539-3.63-0.162-7.158,2.675-9.908
			c2.163-2.097,4.925-2.985,7.82-3.364c2.602-0.34,5.237-0.413,8.12-0.625c-0.16-1.42-0.215-2.947-0.533-4.412
			c-0.416-1.875-1.863-2.092-4.16-2.077c-2.737,0.02-5.1,1.204-7.444,2.431c-0.379,0.197-0.729,0.443-1.106,0.643
			c-0.662,0.357-1.272,0.272-1.68-0.377c-0.889-1.417-1.777-2.842-2.582-4.307c-0.465-0.846,0.275-1.246,0.856-1.55
			c3.171-1.657,6.458-3.047,10.009-3.606c3.381-0.533,6.743-0.445,9.98,0.915c3.172,1.279,5.219,4.389,5.14,7.807
			c-0.062,4.426-0.118,8.846-0.171,13.261c0,0.894,0,1.784,0.01,2.678c0.048,1.993,0.566,3.799,2.17,5.139
			c0.679,0.568,0.74,1.16,0.142,1.831c-0.948,1.071-1.88,2.142-2.823,3.212c-0.742,0.842-1.602,0.93-2.451,0.231
			C328.287,130.785,327.203,129.774,325.936,128.654z M323.738,119.852h0.039c0-0.964-0.049-1.928,0.016-2.889
			c0.055-0.816-0.251-1.105-1.039-1.035c-1.135,0.105-2.283,0.104-3.404,0.271c-3.465,0.521-5.095,1.737-4.568,6.116
			c0.321,2.661,2.486,4.025,5.123,3.479c2.721-0.565,3.813-1.86,3.837-4.553C323.743,120.779,323.738,120.314,323.738,119.852z"/>
		<path fill="#ECECEC" d="M157.794,131.088c-0.104-0.063-0.213-0.112-0.328-0.15c-2.066-0.201-2.03-0.215-2.688-2.16
			c-2.056-6.102-4.126-12.197-6.21-18.288c-1.331-3.904-2.665-7.807-4.002-11.707c-0.244-0.715-0.098-1.21,0.72-1.302
			c2.261-0.253,4.527-0.479,6.788-0.732c0.929-0.105,1.261,0.484,1.484,1.212c1.221,4.02,2.469,8.03,3.641,12.063
			c1.223,4.201,2.37,8.427,3.555,12.634c0.095,0.253,0.203,0.5,0.323,0.741c0.15-0.377,0.275-0.763,0.375-1.156
			c0.983-6.038,3.185-11.729,4.998-17.529c0.658-2.105,1.39-4.187,2.021-6.3c0.261-0.876,0.668-1.311,1.641-1.285
			c2.209,0.054,4.422,0.017,6.638,0.03c0.34,0,0.683,0.066,1.238,0.122c-0.428,1.208-0.771,2.272-1.152,3.328
			c-1.406,3.877-2.817,7.753-4.233,11.627c-2.178,5.949-4.323,11.908-6.563,17.834c-1.056,2.783-2.163,5.58-3.486,8.252
			c-2.101,4.238-5.921,6.172-10.343,7.15c-1.056,0.234-1.767-0.098-2.212-1.133c-0.407-0.943-0.944-1.83-1.424-2.745
			c-0.613-1.167-0.469-1.533,0.798-1.942c1.666-0.537,3.298-1.109,4.636-2.325C155.875,135.627,156.917,133.447,157.794,131.088z"/>
		<path fill="#ECECEC" d="M389.719,116.597c-2.781,0-5.566,0-8.352,0c-1.523,0-1.563,0.013-1.457,1.571
			c0.261,3.908,2.271,6.813,6.329,7.185c2.97,0.272,5.636-0.474,8.138-2c0.182-0.111,0.347-0.251,0.526-0.366
			c1.058-0.681,1.398-0.614,2.084,0.411c0.593,0.889,1.139,1.813,1.779,2.666c0.589,0.784,0.441,1.339-0.317,1.874
			c-2.51,1.769-5.25,2.998-8.28,3.529c-4.624,0.796-9.02,0.227-12.998-2.434c-3.138-2.094-5.097-5.086-6.015-8.674
			c-1.199-4.675-1.157-9.403,0.318-14.02c1.928-6.03,7.42-9.921,13.725-9.97c2.611-0.02,5.119,0.428,7.437,1.614
			c3.694,1.902,5.664,5.161,6.495,9.073c0.516,2.422,0.674,4.926,0.856,7.409c0.12,1.686-0.388,2.114-2.021,2.118
			c-2.747,0-5.495,0-8.242,0l0,0L389.719,116.597z M385.437,110.444c0.927,0,1.854,0.02,2.784,0c3.045-0.073,2.569,0.55,2.52-2.711
			c-0.047-2.632-1.891-4.786-4.079-5.06c-3.13-0.392-5.294,0.925-6.133,3.854c-0.272,0.944-0.284,1.961-0.443,2.942
			c-0.128,0.796,0.282,0.996,0.972,0.987c1.453-0.028,2.913-0.013,4.375-0.015L385.437,110.444z"/>
		<path fill="#ECECEC" d="M235.321,116.599c-2.89,0-5.782,0.023-8.667-0.013c-0.877-0.011-1.18,0.283-1.162,1.176
			c0.079,4.119,2.229,6.934,5.745,7.522c2.368,0.396,4.614,0,6.78-0.927c0.944-0.408,1.85-0.902,2.702-1.479
			c0.741-0.496,1.218-0.377,1.685,0.322c0.694,1.035,1.416,2.053,2.125,3.081c0.428,0.632,0.266,1.097-0.336,1.53
			c-2.57,1.868-5.398,3.168-8.549,3.68c-4.906,0.797-9.525,0.122-13.56-2.971c-3.426-2.629-5.19-6.264-5.835-10.461
			c-0.477-3.18-0.398-6.418,0.229-9.571c1.125-5.827,5.676-10.955,11.809-11.87c3.912-0.583,7.627-0.12,10.98,1.949
			c2.816,1.739,4.338,4.54,5.289,7.651c0.876,2.863,0.919,5.83,1.016,8.78c0.033,1.058-0.514,1.562-1.58,1.565
			c-2.889,0.016-5.782,0-8.667,0v0.027L235.321,116.599z M231.056,110.429L231.056,110.429c1.39,0,2.784-0.036,4.169,0.013
			c0.844,0.03,1.285-0.169,1.148-1.125c-0.138-0.955-0.073-1.927-0.283-2.861c-0.409-1.818-1.418-3.229-3.33-3.657
			c-1.953-0.429-3.854-0.328-5.328,1.285c-1.383,1.512-1.736,3.362-1.751,5.343c0,0.762,0.278,1.011,0.991,1
			C228.141,110.429,229.604,110.429,231.056,110.429z"/>
		<path fill="#ECECEC" d="M50.946,140.533c14.311-2.068,25.365-13.782,27.547-27.789c1.392-8.944-0.563-17.204-5.808-24.626
			c-5.212-7.366-12.265-11.896-21.159-13.591c5.938-0.323,11.865,0.814,17.262,3.313c5.686,2.629,10.341,6.514,13.752,11.799
			c2.694,4.173,4.48,8.696,5.075,13.668c1.002,8.392-0.818,16.11-5.698,22.996c-5.394,7.611-12.848,12.061-22.009,13.617
			c-2.936,0.5-5.938,0.603-8.908,0.887L50.946,140.533z"/>
		<path fill="#ECECEC" d="M37.125,74.529c-15.185,2.12-27.838,15.617-28.082,32.53c-0.242,17.028,12.266,31.293,28.003,33.459
			c-9.636,0.973-22.484-2.738-30.38-13.439c-8.21-11.154-8.863-25-1.816-36.515C12.095,78.713,25.269,73.775,37.125,74.529z"/>
		<path fill="#ECECEC" d="M286.902,114.07c0-3.354-0.025-6.709,0.018-10.065c0.011-0.902-0.298-1.202-1.182-1.152
			c-2.732,0.15-2.228-0.049-2.305-2.18c-0.053-0.928-0.042-1.858,0.034-2.784c0.028-0.272,0.474-0.516,0.757-0.735
			c0.09-0.071,0.277-0.015,0.428-0.017c2.223-0.036,2.203-0.039,2.255-2.315c0.038-1.672,0.101-3.347,0.233-5.015
			c0.025-0.319,0.383-0.803,0.674-0.882c2.199-0.585,4.412-1.12,6.639-1.604c1.152-0.25,1.54,0.09,1.499,1.249
			c-0.104,2.419-0.229,4.839-0.405,7.257c-0.074,1.03,0.277,1.386,1.324,1.341c1.781-0.075,3.567-0.039,5.354,0
			c1.051,0.019,1.246,0.359,0.88,1.357c-0.405,1.103-0.824,2.201-1.208,3.313c-0.266,0.773-0.713,1.135-1.584,1.071
			c-1.244-0.077-2.497-0.011-3.746-0.039c-0.728-0.017-1.015,0.285-1.012,1.02c0.019,5.782,0.01,11.563,0.031,17.345
			c0.012,0.606,0.083,1.209,0.215,1.801c0.455,2.195,1.541,2.847,4.445,2.692c0.249-0.017,0.496-0.051,0.74-0.103
			c1.914-0.389,1.908-0.389,2.27,1.598c0.127,0.699,0.377,1.389,0.395,2.09c0,0.368-0.275,0.979-0.569,1.083
			c-4.345,1.555-8.684,1.968-12.874-0.476c-2.187-1.285-3.197-3.332-3.255-5.781c-0.079-3.354-0.02-6.709-0.02-10.064h-0.017
			L286.902,114.07z"/>
		<path fill="#ECECEC" d="M257.367,101.033c1.13-1.041,2.164-2.064,3.275-2.998c1.803-1.514,3.945-1.906,6.226-1.63
			c1.284,0.154,1.687,0.833,1.311,2.111c-0.454,1.536-0.958,3.056-1.429,4.587c-0.24,0.782-0.713,1.021-1.539,0.904
			c-2.474-0.354-4.688,0.263-6.441,2.092c-0.418,0.447-0.668,1.025-0.707,1.636c-0.047,7.099-0.027,14.197-0.032,21.296
			c0,1.656-0.214,1.869-1.829,1.874c-1.783,0-3.566,0-5.354,0c-1.338,0-1.616-0.272-1.618-1.632
			c-0.011-7.67,0.054-15.341-0.064-23.009c-0.034-2.293-0.512-4.589-0.907-6.852c-0.127-0.724-0.059-1.071,0.654-1.244
			c1.999-0.505,3.998-1.026,5.996-1.561c0.76-0.214,1.242-0.013,1.454,0.775C256.68,98.568,257.014,99.754,257.367,101.033z"/>
		<path fill="#ECECEC" d="M279.451,113.642c0,5.241,0,10.481,0,15.722c0,1.386-0.142,1.535-1.527,1.537
			c-1.961,0-3.921-0.023-5.883,0c-1.002,0.016-1.417-0.428-1.417-1.41c0.011-10.196,0.011-20.392,0-30.588
			c0-0.899,0.379-1.302,1.206-1.426c2.214-0.33,4.424-0.7,6.638-0.968c0.292-0.034,0.689,0.385,0.942,0.679
			c0.124,0.146,0.032,0.479,0.032,0.73C279.447,103.165,279.451,108.406,279.451,113.642z"/>
		<path fill="#ECECEC" d="M275.136,82.24c3.032-0.214,5.368,2.621,5.394,5.4c0.028,2.975-2.488,5.27-5.688,5.259
			c-2.783,0-5.256-2.493-5.263-5.295C269.572,84.709,272.125,82.245,275.136,82.24z"/>
	</g>
</g>
<g id="styleguide">
</g>
</svg>
