<?xml version="1.0" encoding="utf-8"?>
<!-- Generator: Adobe Illustrator 16.0.0, SVG Export Plug-In . SVG Version: 6.00 Build 0)  -->
<!DOCTYPE svg PUBLIC "-//W3C//DTD SVG 1.1//EN" "http://www.w3.org/Graphics/SVG/1.1/DTD/svg11.dtd">
<svg version="1.1" xmlns="http://www.w3.org/2000/svg" xmlns:xlink="http://www.w3.org/1999/xlink" x="0px" y="0px" width="400px"
	 height="220px" viewBox="0 0 400 220" enable-background="new 0 0 400 220" xml:space="preserve">
<g id="Layer_1">
	<g>
		<path fill="#ECECEC" d="M41.657,84.083c-0.473-0.237-1.184-0.474-1.657-0.474c-8.994-2.604-14.201,1.657-15.385,6.154
			c-1.894,6.154,1.184,10.415,9.468,16.805c9.94,7.575,13.964,14.674,11.124,24.616c-0.947,2.84-2.367,5.443-4.26,7.574
			c8.047-3.314,14.674-9.941,17.278-18.936C62.249,105.148,54.911,90,41.657,84.083z"/>
		<path fill="#ECECEC" d="M27.456,112.012c-9.704-7.101-14.674-14.674-12.071-23.905c0.473-1.42,1.183-2.604,1.657-3.787
			C9.704,87.633,3.787,94.26,1.184,102.781c-2.604,8.758-0.947,17.988,3.787,25.088c3.314,4.024,6.627,7.102,13.018,8.994
			c8.757,2.367,15.858-0.946,17.988-7.573C37.87,122.899,35.503,118.166,27.456,112.012z"/>
		<g>
			<g>
				<path fill="#ECECEC" d="M85.917,107.751c-2.604-1.657-4.497-3.313-5.444-4.734c-0.946-1.42-1.657-3.077-1.657-4.733
					c0-1.894,0.474-3.314,1.42-4.497c0.947-1.184,2.13-1.657,3.787-1.657c1.42,0,2.84,0.236,4.261,0.71
					c1.183,0.473,2.604,1.183,3.787,1.894l3.314-8.047c-3.787-2.367-7.811-3.55-11.834-3.55c-4.26,0-7.811,1.42-10.414,4.023
					c-2.604,2.84-3.787,6.391-3.787,11.125c0,2.367,0.237,4.497,0.947,6.39c0.71,1.894,1.657,3.55,2.84,4.971
					c1.183,1.419,2.84,3.077,5.207,4.734c2.604,1.893,4.497,3.551,5.68,4.971c1.184,1.42,1.657,3.076,1.657,4.97
					s-0.474,3.313-1.42,4.261c-0.947,1.184-2.367,1.656-4.26,1.656c-3.313,0-7.101-1.42-11.124-4.023v10.178
					c3.313,1.894,7.337,2.84,12.071,2.84s8.521-1.42,11.124-4.023s3.787-6.627,3.787-11.834c0-3.077-0.71-5.918-2.13-8.521
					C92.071,112.722,89.467,110.118,85.917,107.751z M101.539,138.758h9.941V97.101h-9.941V138.758L101.539,138.758z
					 M106.509,80.769c-1.657,0-3.077,0.474-4.023,1.42s-1.42,2.367-1.42,4.023s0.474,3.077,1.42,4.024s2.367,1.42,4.023,1.42
					s2.84-0.473,3.787-1.42s1.42-2.367,1.42-4.024s-0.473-2.84-1.42-4.023C109.586,81.243,108.166,80.769,106.509,80.769z
					 M159.527,96.391c-4.734,0-8.047,2.367-10.178,7.101h-0.237c-1.657-4.734-4.97-7.101-9.941-7.101
					c-1.893,0-3.787,0.473-5.443,1.42c-1.657,0.947-3.077,2.604-4.024,4.734h-0.71l-1.42-5.444h-7.811v41.657h9.941v-20.119
					c0-4.971,0.474-8.521,1.42-10.65c0.947-2.13,2.604-3.313,4.734-3.313c3.077,0,4.497,3.077,4.497,9.23v24.853h9.941v-20.355
					c0-4.734,0.473-8.284,1.42-10.414c0.947-2.13,2.604-3.313,4.734-3.313c3.077,0,4.497,3.077,4.497,9.23v24.853h9.941v-27.219
					c0-4.971-0.947-8.758-2.84-11.361C165.917,97.574,163.077,96.391,159.527,96.391z M178.698,138.758h9.941V97.101h-9.941V138.758
					z M183.668,80.769c-1.657,0-3.077,0.474-4.023,1.42s-1.42,2.367-1.42,4.023s0.473,3.077,1.42,4.024s2.367,1.42,4.023,1.42
					s2.84-0.473,3.787-1.42s1.42-2.367,1.42-4.024s-0.474-2.84-1.42-4.023C186.509,81.243,185.326,80.769,183.668,80.769z
					 M196.923,138.758h9.94V80.533h-9.94V138.758z M228.876,96.154c-4.733,0-9.231,1.42-13.255,4.024l3.314,6.864
					c3.313-1.894,5.916-2.84,8.52-2.84c3.314,0,4.971,1.894,4.971,5.917v3.077l-5.443,0.236c-4.734,0.236-8.284,1.42-10.65,3.551
					c-2.367,2.13-3.551,5.443-3.551,9.704c0,4.023,0.947,7.337,2.604,9.468c1.656,2.366,4.023,3.55,7.101,3.55
					c2.366,0,4.261-0.474,5.917-1.42s3.077-2.604,4.497-4.971h0.237l1.893,5.681h7.102v-28.166c0-4.733-1.184-8.284-3.314-10.65
					C236.687,97.574,233.373,96.154,228.876,96.154z M232.426,122.662c0,2.604-0.473,4.971-1.656,6.628s-2.604,2.366-4.261,2.366
					c-2.366,0-3.55-1.656-3.55-5.207c0-2.366,0.473-4.023,1.656-5.207c0.947-1.184,2.604-1.893,4.971-1.893l3.076-0.237
					L232.426,122.662L232.426,122.662z M263.432,98.047c-1.184,1.184-2.367,3.077-3.55,5.68h-0.237l-1.184-6.627h-8.047v41.657
					h9.941v-21.539c0-3.551,0.709-6.391,1.893-8.284c1.184-1.894,3.077-2.84,5.444-2.84c1.184,0,1.894,0.237,2.604,0.473
					l1.184-9.704c-1.184-0.473-2.367-0.473-3.55-0.473C266.035,96.391,264.615,96.864,263.432,98.047z M316.213,114.852
					c-0.473,2.367-0.947,7.338-1.894,14.675c-0.474-4.97-0.946-9.704-1.894-14.438l-5.68-31.006h-10.414l-5.682,31.006
					c-0.473,2.841-1.184,7.573-1.656,14.438c-0.71-6.627-1.42-11.36-1.894-14.438l-4.733-30.77h-10.178l9.704,54.675h12.544
					l5.207-28.402l1.42-11.361l0.237-2.84c0.237,5.444,0.946,9.941,1.657,13.964l5.207,28.639h12.544l9.704-54.675h-9.94
					L316.213,114.852z M348.402,96.391c-4.734,0-8.521,1.894-11.124,5.68c-2.604,3.787-4.024,9.231-4.024,16.095
					c0,6.863,1.421,12.07,4.498,15.621c3.076,3.787,7.1,5.443,12.07,5.443c4.497,0,8.284-0.946,11.361-2.84v-8.284
					c-3.313,2.13-6.627,3.077-9.941,3.077c-2.604,0-4.496-0.947-5.916-2.604c-1.421-1.894-2.131-4.497-2.367-8.284h19.881v-5.207
					c0-5.917-1.184-10.651-3.787-13.965C356.449,98.047,352.899,96.391,348.402,96.391z M343.195,113.195
					c0.236-3.077,0.71-5.444,1.656-7.101c0.947-1.42,2.131-2.367,3.551-2.367s2.604,0.71,3.551,2.367
					c0.946,1.657,1.42,3.787,1.42,6.864h-10.178V113.195z M396.687,101.834c-2.13-3.787-4.971-5.681-8.757-5.681
					c-1.895,0-3.551,0.473-4.734,1.42c-1.42,0.947-2.604,2.604-4.023,4.734h-0.474c0.237-3.787,0.474-5.917,0.474-6.627
					c0-0.71,0-1.184,0-1.894V80.533h-9.941v58.225h7.338l1.656-4.734h0.711c1.183,2.131,2.604,3.551,4.023,4.261
					s3.076,1.183,4.971,1.183c3.786,0,6.863-1.893,8.993-5.68c2.131-3.787,3.313-8.994,3.313-16.095
					C400,111.064,398.816,105.621,396.687,101.834z M384.615,130.947c-1.894,0-3.313-0.947-4.26-2.841
					c-0.947-1.894-1.184-5.444-1.184-10.177v-0.947c0-4.497,0.473-7.574,1.42-9.468c0.71-1.657,2.13-2.604,4.023-2.604
					c3.551,0,5.443,4.26,5.443,13.019C389.822,126.449,388.166,130.947,384.615,130.947z"/>
			</g>
		</g>
	</g>
</g>
<g id="styleguide">
</g>
</svg>
